<?xml version="1.0" encoding="UTF-8"?><svg id="Layer_1" xmlns="http://www.w3.org/2000/svg" viewBox="0 0 1259.74 714.04"><path fill="#e9edf2" d="M244.79,370.35c-1.81-2.81-3.91-5.42-6.29-7.85-10.11-10.3-27.23-18.27-51.35-23.92l-38.66-9.15c-12.58-2.89-21.56-6.94-26.97-12.13-5.39-5.17-8.08-11.43-8.08-18.76v-.23c0-6.4,1.71-12.01,5.17-16.8,3.44-4.82,8.38-8.52,14.82-11.11,6.44-2.6,14.01-3.89,22.71-3.89,13.62,0,24.42,3.33,32.36,9.96,7.95,6.64,12.59,15.22,13.94,25.73l.23,1.61h45.61v-2.74c-.75-13.57-4.91-25.9-12.48-36.96s-18.08-19.8-31.57-26.2c-13.49-6.4-29.51-9.62-48.09-9.62s-34.09,3.01-47.88,9.05c-13.79,6.02-24.5,14.49-32.14,25.39-7.64,10.91-11.46,23.62-11.46,38.11v.23c0,17.38,5.57,31.69,16.75,42.9,11.16,11.21,27.98,19.41,50.46,24.6l38.64,8.92c12.74,3.21,21.58,7.17,26.53,11.89,4.94,4.74,7.4,11,7.4,18.76v.23c0,6.57-1.86,12.21-5.61,16.93s-9.07,8.35-15.95,10.88c-6.9,2.51-15.29,3.78-25.17,3.78-14.84,0-26.38-3.09-34.62-9.28-8.23-6.17-13.57-14.76-15.95-25.73l-.45-2.3h-48.11l.23,2.06c1.65,14.64,6.52,27.5,14.61,38.56,8.08,11.06,19.21,19.68,33.37,25.85,14.17,6.19,31.14,9.27,50.92,9.27,18.57,0,35.08-3.13,49.54-9.37,14.47-6.25,25.82-14.96,34.05-26.1,7.17-9.68,11.23-20.71,12.16-33.09"/><path fill="#e9edf2" d="M455.58,300.88c-2.4-10.41-6.6-20.26-12.63-29.58-8.4-12.96-19.96-23.37-34.72-31.22-14.77-7.87-32.26-11.79-52.48-11.79-22.47,0-42.1,5.07-58.89,15.22-16.79,10.15-29.78,24.52-38.99,43.14-9.22,18.61-13.81,40.66-13.81,66.13v.23c0,5.97.23,11.76.73,17.35,1.26,14.41,4.16,27.56,8.68,39.49,1.26,3.36,2.65,6.6,4.18,9.75,9.07,18.76,22.03,33.27,38.88,43.48s36.75,15.32,59.67,15.32c19.03,0,35.85-3.76,50.46-11.33,14.61-7.54,26.37-17.77,35.28-30.66,6.35-9.18,10.9-19.16,13.64-29.93M455.58,391.45h-44.32l-.22,1.83c-3.01,12.98-9.12,23.46-18.32,31.47-9.23,8-21.33,12.01-36.31,12.01-12.58,0-23.56-3.28-32.92-9.85-9.37-6.55-16.67-16.05-21.91-28.48-5.24-12.44-7.87-27.42-7.87-44.97v-.23c0-17.08,2.58-31.89,7.75-44.4s12.44-22.16,21.81-28.95,20.26-10.18,32.71-10.18c15.87,0,28.35,4.31,37.41,12.93,9.07,8.62,14.87,18.81,17.42,30.56l.45,2.06h44.32"/><path fill="#e9edf2" d="M569.44,274.35c-.42-.07-.85-.12-1.28-.18-3.89-.53-8.23-.8-13.03-.8-10.35,0-19.33,2.26-26.98,6.75-7.64,4.49-13.47,10.98-17.52,19.45-4.06,8.47-6.07,18.65-6.07,30.56v143.46h-48.99v-240.73h48.99v41.19h.9c3.74-14.17,10.41-25.35,20-33.52,9.58-8.15,21.13-12.24,34.62-12.24,3.59,0,6.85.2,9.78.58,2.91.38,5.27.8,7.07,1.25v32.26"/><path fill="#e9edf2" d="M677.26,331.73c0-.07-.02-.15-.02-.22l-3.56.22-33.55,2.06c-27.86,1.68-49.47,8.65-64.83,20.93-15.35,12.29-23.04,28.96-23.04,50.01v.45c0,14.36,3.29,27.02,9.88,38,6.6,10.98,15.82,19.53,27.65,25.64,11.84,6.11,25.62,9.15,41.36,9.15,7.3,0,14.29-.83,20.98-2.5,1.35-.33,2.68-.72,4.01-1.11,5.06-12.83,9.23-25.9,12.56-39.19.12-.47.23-.91.33-1.38-1.28.52-2.58.96-3.91,1.38-6.42,2-13.32,2.98-20.71,2.98-13.03,0-23.47-3.04-31.34-9.15-7.87-6.09-11.81-14.41-11.81-24.94v-.47c0-10.21,3.94-18.42,11.81-24.59,7.87-6.19,19.06-9.73,33.59-10.65l27.86-1.78,3.58-.23c.1-3.09.13-6.2.13-9.3,0-8.48-.32-16.93-.96-25.3ZM608.01,301.98c2.1-9.62,7.37-17.47,15.84-23.57,8.47-6.11,19.66-9.17,33.6-9.17,1.76,0,3.46.07,5.12.17,1.25.08,2.48.18,3.68.33-.02-.12-.05-.22-.08-.33-3.61-12.69-7.98-25.17-13.18-37.41-.47-1.13-.95-2.25-1.43-3.36-.03-.07-.05-.12-.08-.18-1.18.05-2.35.1-3.49.18-14.82,1-27.91,4.08-39.31,9.27-13.34,6.07-23.94,14.22-31.74,24.47-.45.57-.88,1.15-1.3,1.73-.8,1.11-1.56,2.23-2.28,3.38-1.45,2.23-2.74,4.52-3.91,6.87-.1.2-.2.38-.3.58-3.99,8.2-6.4,17.07-7.22,26.58l-.23,2.53h45.86l.45-2.06Z"/><path fill="#e9edf2" d="M850.98,277.85v-39.36h-44.27v-62.7h-49.89v62.7h-33.94v39.36h33.94v137.76c0,24.11,5.73,41.53,17.19,52.29,11.46,10.76,28.88,16.13,52.25,16.13,4.95,0,9.59-.23,13.93-.69,4.35-.46,7.94-.92,10.79-1.38v-38.21c-1.8.15-3.78.34-5.95.57-2.17.23-4.53.34-7.08.34-10.34,0-18.13-2.25-23.37-6.75-5.25-4.5-7.87-12.85-7.87-25.06v-135.01h44.27Z"/><path fill="#e9edf2" d="M1005.41,397.08l-.23,1.83c-3,12.97-9.1,23.46-18.32,31.47-9.22,8-21.31,12.01-36.3,12.01-12.59,0-23.56-3.28-32.93-9.84-9.37-6.56-16.67-16.06-21.91-28.49-5.24-12.43-7.86-27.42-7.86-44.97v-.23c0-17.09,2.58-31.89,7.75-44.4,5.17-12.51,12.43-22.16,21.8-28.95,9.36-6.79,20.26-10.18,32.7-10.18,15.88,0,28.35,4.31,37.42,12.93,9.06,8.62,14.87,18.81,17.42,30.55l.45,2.06h46.52l-.18-1.53-.04-.3c-1.35-15.1-6.22-29.14-14.61-42.11-8.39-12.97-19.96-23.38-34.72-31.24-14.76-7.86-32.25-11.78-52.48-11.78-22.47,0-42.11,5.07-58.88,15.22-16.78,10.15-29.78,24.53-39,43.13-9.21,18.62-13.82,40.66-13.82,66.14v.23c0,25.63,4.53,47.82,13.6,66.59,9.06,18.77,22.02,33.26,38.88,43.48,16.85,10.22,36.75,15.33,59.67,15.33,19.03,0,35.85-3.77,50.45-11.33,14.61-7.55,26.37-17.77,35.29-30.66,8.32-12.03,13.54-25.42,15.66-40.17.15-1.06.29-2.12.41-3.19v-1.6h-46.74Z"/><path fill="#e9edf2" d="M1248.29,279.68c-6.97-14.5-16.71-25.74-29.22-33.75-12.51-8.01-27.23-12.01-44.16-12.01s-32.78,3.85-45.29,11.55c-12.51,7.71-21.84,18.58-27.98,32.61h-1.12v-129.06h-48.77v330.21h48.77v-139.36c0-12.66,2.32-23.72,6.97-33.18,4.64-9.46,11.12-16.85,19.44-22.2,8.31-5.33,18.01-8.01,29.1-8.01,17.08,0,30.34,5.58,39.78,16.71,9.44,11.14,14.16,26.7,14.16,46.68v139.36h48.77v-148.74c0-19.38-3.48-36.31-10.45-50.8Z"/><circle fill="#e9edf2" cx="356.76" cy="357.28" r="28.9"/><path fill="#e9edf2" d="M678.09,366.33v.23c-.65,22.84-3.68,45.3-9.07,67.21"/><path fill="#e9edf2" d="M713.01,329.53c-2.56-33.8-9.86-66.77-21.81-98.41-1.65-4.38-3.39-8.73-5.22-13.06-17.98-42.52-43.73-80.7-76.51-113.49-32.79-32.77-70.97-58.52-113.49-76.51C451.97,9.45,405.2,0,357.01,0s-94.94,9.45-138.97,28.06c-42.52,17.98-80.7,43.73-113.47,76.51-32.79,32.79-58.52,70.97-76.51,113.49C9.45,262.07,0,308.84,0,357.03s9.45,94.94,28.06,138.97c17.98,42.52,43.72,80.7,76.51,113.47,32.77,32.79,70.95,58.52,113.47,76.51,44.03,18.61,90.8,28.06,138.97,28.06s94.95-9.45,138.97-28.06c42.52-17.98,80.7-43.72,113.49-76.51,32.77-32.77,58.52-70.95,76.51-113.47,7.64-18.07,13.72-36.56,18.25-55.43,5.97-24.85,9.23-50.36,9.73-76.27.05-2.43.08-4.86.08-7.27,0-9.22-.35-18.4-1.03-27.5ZM669.02,433.77c-.1.47-.22.91-.33,1.38-3.33,13.29-7.5,26.37-12.56,39.19-.13.37-.28.75-.43,1.11-.88,2.21-1.78,4.41-2.71,6.59-16.17,38.24-39.33,72.61-68.84,102.11-29.51,29.51-63.86,52.67-102.11,68.85-39.59,16.74-81.66,25.24-125.03,25.24s-85.44-8.5-125.01-25.24c-38.24-16.19-72.61-39.34-102.11-68.85-29.51-29.49-52.67-63.86-68.85-102.11-16.74-39.59-25.24-81.65-25.24-125.01s8.5-85.44,25.24-125.03c16.19-38.24,39.34-72.6,68.85-102.11,29.49-29.51,63.86-52.67,102.11-68.84,39.58-16.75,81.65-25.24,125.01-25.24s85.44,8.48,125.03,25.24c38.24,16.17,72.6,39.33,102.11,68.84,28.6,28.6,51.22,61.73,67.32,98.56.03.07.05.12.08.18.48,1.11.96,2.23,1.43,3.36,5.19,12.24,9.57,24.72,13.18,37.41.03.12.07.22.08.33,5.67,20.13,9.35,40.76,11,61.77,0,.07.02.15.02.22.65,8.37.96,16.82.96,25.3,0,3.09-.03,6.2-.13,9.3"/></svg>